<svg width="1024" height="1024" viewBox="0 0 1024 1024" fill="none" xmlns="http://www.w3.org/2000/svg">
<circle cx="512" cy="501" r="181" fill="#0099E6" style="fill:#0099E6;fill:color(display-p3 0.0000 0.6000 0.9000);fill-opacity:1;"/>
<path fill-rule="evenodd" clip-rule="evenodd" d="M512 280C403.593 280 313.5 358.409 295.338 461.609C283.198 457.96 270.328 456 257 456C183.546 456 124 515.546 124 589C124 662.454 183.546 722 257 722H729C823.441 722 900 645.441 900 551C900 456.559 823.441 380 729 380C718.483 380 708.188 380.949 698.196 382.767C659.236 321.018 590.408 280 512 280ZM456.5 388C445.178 388 436 397.178 436 408.5V449.5C436 460.822 445.178 470 456.5 470C467.822 470 477 460.822 477 449.5V408.5C477 397.178 467.822 388 456.5 388ZM567.5 388C556.178 388 547 397.178 547 408.5V449.5C547 460.822 556.178 470 567.5 470C578.822 470 588 460.822 588 449.5V408.5C588 397.178 578.822 388 567.5 388ZM386.5 459C375.898 459 367.272 467.462 367.006 478H367C367 478.122 367 478.244 367 478.366L367 478.434L367 478.5C367 478.597 367.001 478.693 367.002 478.79C367.427 558.508 432.182 623 512 623C591.819 623 656.575 558.506 656.998 478.786C656.999 478.718 657 478.65 657 478.582L657 478.5C657 478.456 657 478.413 657 478.369L657 478.255L657 478H656.994C656.729 467.462 648.102 459 637.5 459C626.898 459 618.271 467.462 618.006 478H618C618 536.542 570.542 584 512 584C453.458 584 406 536.542 406 478H405.994C405.728 467.462 397.102 459 386.5 459Z" fill="#33BBFF" style="fill:#33BBFF;fill:color(display-p3 0.2000 0.7333 1.0000);fill-opacity:1;"/>
</svg>
